<?xml version="1.0" encoding="utf-8"?>
<!-- Generator: Adobe Illustrator 16.0.3, SVG Export Plug-In . SVG Version: 6.00 Build 0)  -->
<!DOCTYPE svg PUBLIC "-//W3C//DTD SVG 1.1//EN" "http://www.w3.org/Graphics/SVG/1.1/DTD/svg11.dtd">
<svg version="1.1" id="レイヤー_1" xmlns="http://www.w3.org/2000/svg" xmlns:xlink="http://www.w3.org/1999/xlink" x="0px"
	 y="0px" width="1024px" height="1024px" viewBox="0 0 1024 1024" enable-background="new 0 0 1024 1024" xml:space="preserve">
<path d="M0,64v896h1024V64H0z M960,128v70H844.813v-70H960z M844.813,663.563H960v72.125H844.813V663.563z M844.813,601.25v-72.094
	H960v72.094H844.813z M844.813,466.844V394.75H960v72.094H844.813z M844.813,332.406v-72.063H960v72.063H844.813z M780.813,128
	v755.188H243.219V128H780.813z M179.219,332.406H64v-72.063h115.219V332.406z M179.219,394.75v72.094H64V394.75H179.219z
	 M179.219,529.156v72.094H64v-72.094H179.219z M179.219,663.563v72.125H64v-72.125H179.219z M179.219,128v70H64v-70H179.219z
	 M64,798h115.219v85.188H64V798z M844.813,883.188V798H960v85.188H844.813z"/>
<polygon points="370.656,368 370.656,664 685.313,506 "/>
</svg>
